<svg xmlns="http://www.w3.org/2000/svg" version="1.1" xmlns:xlink="http://www.w3.org/1999/xlink" xmlns:svgjs="http://svgjs.dev/svgjs" width="2000" height="1500" viewBox="0 0 2000 1500"><rect width="2000" height="1500" fill="#ffffff"></rect><g transform="matrix(0.4899559039686428,0,0,0.4899559039686428,509.4209564242258,248.38741488385733)"><svg viewBox="0 0 243 248" data-background-color="#ffffff" preserveAspectRatio="xMidYMid meet" height="2041" width="2000" xmlns="http://www.w3.org/2000/svg" xmlns:xlink="http://www.w3.org/1999/xlink"><g id="tight-bounds" transform="matrix(1,0,0,1,0.154527094485843,0.40007889138755104)"><svg viewBox="0 0 242.69094581102829 247.2" height="247.2" width="242.69094581102829"><g><svg viewBox="0 0 395.52 402.8685275969494" height="247.2" width="242.69094581102829"><g transform="matrix(1,0,0,1,0,303.23441620337417)"><svg viewBox="0 0 395.52 99.63411139357521" height="99.63411139357521" width="395.52"><g id="textblocktransform"><svg viewBox="0 0 395.52 99.63411139357521" height="99.63411139357521" width="395.52" id="textblock"><g><svg viewBox="0 0 395.52 99.63411139357521" height="99.63411139357521" width="395.52"><g transform="matrix(1,0,0,1,0,0)"><svg width="395.52" viewBox="-5.65 -46.45 216.32 54.50000000000001" height="99.63411139357521" data-palette-color="#233565"><path d="M20.6-20.7L20.6-20.7 12.85-20.7Q10-15.3 6.25-7.35L6.25-7.35Q6.1-6.9 5.78-6.13 5.45-5.35 4.38-3.23 3.3-1.1 2.13 0.75 0.95 2.6-0.8 4.63-2.55 6.65-4.35 7.75L-4.35 7.75Q-4.8 8.05-5.15 8.05L-5.15 8.05Q-5.65 8.05-5.65 7.4L-5.65 7.4Q-5.65 7-5.5 6.4-5.35 5.8-5.2 5.4L-5.2 5.4-5.05 5.05Q-2.65-0.85 8.65-20.65L8.65-20.65 6.55-20.65Q5.8-20.65 5.8-21.1L5.8-21.1Q5.8-21.45 6.18-21.78 6.55-22.1 6.95-22.1L6.95-22.1 9.5-22.1 14.45-30.55Q15.65-32.75 15.65-34.35L15.65-34.35Q15.65-35.15 15.35-35.68 15.05-36.2 14.8-36.35L14.8-36.35 14.5-36.5Q14.05-36.75 14.05-37.05L14.05-37.05Q14.05-37.3 14.33-37.48 14.6-37.65 14.8-37.65L14.8-37.65Q19.85-37.95 25.3-37.95L25.3-37.95Q29.85-37.95 32.65-37.7L32.65-37.7Q33.45-37.7 33.45-37.05L33.45-37.05Q33.45-36.8 33.3-36.5L33.3-36.5Q31.55-32.4 29.95-30L29.95-30Q29.8-29.75 29.35-29.75L29.35-29.75Q28.95-29.75 28.95-30.35L28.95-30.35Q29.3-31.4 29.3-32.65L29.3-32.65Q29.3-36.55 25.3-36.55L25.3-36.55Q22.5-36.55 21.45-35.15L21.45-35.15Q18.8-31.8 13.6-22.1L13.6-22.1Q14.95-22.1 17.57-22.13 20.2-22.15 21.45-22.15L21.45-22.15Q21.85-22.15 21.95-22.05L21.95-22.05Q22-22 22-21.9L22-21.9Q22-21.55 21.58-21.15 21.15-20.75 20.6-20.7ZM34.25-17.6L34.25-17.6Q34.7-17.5 34.7-17.3L34.7-17.3Q34.7-17 34.3-16.6L34.3-16.6Q33.75-16.05 32.67-15.15 31.6-14.25 31.4-14.05L31.4-14.05 30.7-13.1Q29.65-10.15 27.47-6.98 25.3-3.8 22.17-1.4 19.05 1 16.2 1L16.2 1Q12.65 1 12.65-3.35L12.65-3.35Q12.65-7.2 15.15-11.68 17.65-16.15 21.62-19.33 25.6-22.5 29.45-22.5L29.45-22.5Q32.25-22.5 32.25-20.3L32.25-20.3Q32.25-19.1 31.05-17.05L31.05-17.05Q31-17 31-16.9 31-16.8 31.1-16.8L31.1-16.8Q32.95-17.55 34.25-17.6ZM29.5-16.4L29.5-16.4Q29.9-18.15 29.9-19.1L29.9-19.1Q29.9-21.2 28.5-21.2L28.5-21.2Q26.55-21.2 23.65-17.6 20.75-14 18.67-9.5 16.6-5 16.6-2.4L16.6-2.4Q16.6-0.5 17.95-0.5L17.95-0.5Q20.05-0.5 22.97-4.7 25.9-8.9 26.5-13.15L26.5-13.15Q26.45-13.25 26.45-13.45L26.45-13.45Q26.45-14.9 29.05-16.05L29.05-16.05Q29.45-16.2 29.5-16.4ZM51.65-17.6L51.65-17.6Q52.09-17.5 52.09-17.3L52.09-17.3Q52.09-17 51.7-16.6L51.7-16.6Q51.15-16.05 50.07-15.15 49-14.25 48.8-14.05L48.8-14.05 48.09-13.1Q47.05-10.15 44.87-6.98 42.7-3.8 39.57-1.4 36.45 1 33.59 1L33.59 1Q30.05 1 30.05-3.35L30.05-3.35Q30.05-7.2 32.55-11.68 35.05-16.15 39.02-19.33 43-22.5 46.84-22.5L46.84-22.5Q49.65-22.5 49.65-20.3L49.65-20.3Q49.65-19.1 48.45-17.05L48.45-17.05Q48.4-17 48.4-16.9 48.4-16.8 48.5-16.8L48.5-16.8Q50.34-17.55 51.65-17.6ZM46.9-16.4L46.9-16.4Q47.3-18.15 47.3-19.1L47.3-19.1Q47.3-21.2 45.9-21.2L45.9-21.2Q43.95-21.2 41.05-17.6 38.15-14 36.07-9.5 34-5 34-2.4L34-2.4Q34-0.5 35.34-0.5L35.34-0.5Q37.45-0.5 40.37-4.7 43.3-8.9 43.9-13.15L43.9-13.15Q43.84-13.25 43.84-13.45L43.84-13.45Q43.84-14.9 46.45-16.05L46.45-16.05Q46.84-16.2 46.9-16.4ZM53.89-5.35L53.89-5.35Q54.19-5.6 54.72-6.08 55.24-6.55 56.74-8.08 58.24-9.6 59.62-11.23 60.99-12.85 62.67-15.25 64.34-17.65 65.54-20L65.54-20Q65.59-20.1 65.59-20.2L65.59-20.2 65.54-20.35Q65.19-20.55 64.74-20.55L64.74-20.55Q62.59-20.55 59.42-17.35 56.24-14.15 54.02-10.48 51.79-6.8 51.79-5.2L51.79-5.2Q51.79-4.5 52.34-4.5L52.34-4.5Q52.94-4.5 53.89-5.35ZM64.94-7.55L64.94-7.55Q67.04-9.65 70.49-13.6L70.49-13.6Q70.64-13.75 70.74-13.75 70.84-13.75 70.84-13.55L70.84-13.55Q70.84-12.6 70.09-11.7L70.09-11.7Q66.39-7.6 63.54-4.85L63.54-4.85Q57.64 0.65 55.79 0.65L55.79 0.65Q55.09 0.65 55.09-0.1L55.09-0.1Q55.09-1.05 56.04-3.1 56.99-5.15 57.99-6.75L57.99-6.75 58.94-8.35Q59.14-8.6 59.14-8.8L59.14-8.8Q59.14-8.9 59.04-8.9L59.04-8.9Q58.84-8.9 58.49-8.55L58.49-8.55Q56.94-6.75 54.94-4.85 52.94-2.95 51.69-1.9L51.69-1.9 50.49-0.9Q48.49 0.65 47.49 0.65L47.49 0.65 47.29 0.6Q46.44 0.55 46.44-0.9L46.44-0.9Q46.44-4.7 49.12-9.58 51.79-14.45 56.04-18.05 60.29-21.65 64.24-21.65L64.24-21.65Q64.64-21.65 64.99-21.58 65.34-21.5 65.52-21.45 65.69-21.4 65.84-21.3L65.84-21.3 65.99-21.25Q66.09-21.25 66.24-21.4L66.24-21.4Q75.49-38.1 80.44-44.45L80.44-44.45Q81.94-46.45 82.59-46.45L82.59-46.45Q82.84-46.45 82.84-46.05L82.84-46.05Q82.84-45 81.24-41.75L81.24-41.75Q73.54-27.65 70.44-22.2L70.44-22.2Q64.89-12.3 63.69-10.3L63.69-10.3Q61.24-6.1 61.24-5.2L61.24-5.2Q61.24-4.85 61.54-4.85L61.54-4.85Q61.79-4.85 62.12-5.03 62.44-5.2 62.84-5.55 63.24-5.9 63.57-6.2 63.89-6.5 64.34-6.95 64.79-7.4 64.94-7.55ZM64.04-3.45L64.04-3.45Q64.84-5.45 66.32-8.1 67.79-10.75 68.89-12.4L68.89-12.4 69.99-14Q70.69-15 71.39-15L71.39-15Q71.94-15 71.94-14.45L71.94-14.45 71.79-13.95Q69.99-9.4 69.99-6.1L69.99-6.1Q69.99-3.45 71.17-1.78 72.34-0.1 74.84-0.1L74.84-0.1Q78.59-0.1 80.89-3.38 83.19-6.65 83.19-10.45L83.19-10.45Q83.19-13.7 80.97-19.73 78.74-25.75 78.74-27.9L78.74-27.9Q78.74-32.55 82.72-35.38 86.69-38.2 91.44-38.2L91.44-38.2Q92.29-38.2 93.12-38.1 93.94-38 94.94-37.77 95.94-37.55 96.54-37.05 97.14-36.55 97.14-35.8L97.14-35.8Q97.14-34.8 95.74-32.4 94.34-30 93.39-28.75L93.39-28.75Q93.04-28.5 92.79-28.5L92.79-28.5Q92.44-28.5 92.44-29.1L92.44-29.1Q92.44-30.5 92.74-32.9L92.74-32.9Q92.74-36.8 89.74-36.8L89.74-36.8Q87.19-36.8 85.42-35.05 83.64-33.3 83.64-30.8L83.64-30.8Q83.64-27.5 85.97-21.6 88.29-15.7 88.29-12.5L88.29-12.5Q88.29-6.5 83.57-2.63 78.84 1.25 72.94 1.25L72.94 1.25Q71.94 1.25 70.54 1.05 69.14 0.85 67.59 0.43 66.04 0 64.97-0.83 63.89-1.65 63.89-2.7L63.89-2.7Q63.89-3.1 64.04-3.45ZM96.79-7.55L96.79-7.55Q98.89-9.65 102.34-13.6L102.34-13.6Q102.49-13.75 102.59-13.75 102.69-13.75 102.69-13.55L102.69-13.55Q102.69-12.6 101.94-11.7L101.94-11.7Q98.24-7.6 95.39-4.85L95.39-4.85Q89.39 0.95 87.44 0.95L87.44 0.95Q86.74 0.95 86.74 0.05L86.74 0.05Q86.74-1 87.54-3.1 88.34-5.2 89.14-6.8L89.14-6.8 89.94-8.35Q91.09-10.4 93.74-15.35 96.39-20.3 98.86-24.7 101.34-29.1 103.54-32.65L103.54-32.65 99.59-32.65Q99.09-32.65 99.09-32.9 99.09-33.15 99.49-33.4 99.89-33.65 100.34-33.65L100.34-33.65Q101.44-33.65 104.19-33.7L104.19-33.7Q106.64-37.55 108.39-39.8L108.39-39.8Q109.94-41.75 110.54-41.75L110.54-41.75Q110.89-41.75 110.89-41.3L110.89-41.3Q110.89-40.25 108.99-36.8L108.99-36.8 107.29-33.7 112.44-33.7Q112.89-33.7 112.89-33.45L112.89-33.45Q112.89-32.65 111.44-32.65L111.44-32.65 106.74-32.65Q95.19-10.75 94.59-9.7L94.59-9.7Q92.49-5.85 92.49-4.7L92.49-4.7Q92.49-4.35 92.74-4.35L92.74-4.35Q93.44-4.35 96.79-7.55ZM119.44-17.6L119.44-17.6Q119.89-17.5 119.89-17.3L119.89-17.3Q119.89-17 119.49-16.6L119.49-16.6Q118.94-16.05 117.86-15.15 116.79-14.25 116.59-14.05L116.59-14.05 115.89-13.1Q114.84-10.15 112.66-6.98 110.49-3.8 107.36-1.4 104.24 1 101.39 1L101.39 1Q97.84 1 97.84-3.35L97.84-3.35Q97.84-7.2 100.34-11.68 102.84-16.15 106.81-19.33 110.79-22.5 114.64-22.5L114.64-22.5Q117.44-22.5 117.44-20.3L117.44-20.3Q117.44-19.1 116.24-17.05L116.24-17.05Q116.19-17 116.19-16.9 116.19-16.8 116.29-16.8L116.29-16.8Q118.14-17.55 119.44-17.6ZM114.69-16.4L114.69-16.4Q115.09-18.15 115.09-19.1L115.09-19.1Q115.09-21.2 113.69-21.2L113.69-21.2Q111.74-21.2 108.84-17.6 105.94-14 103.86-9.5 101.79-5 101.79-2.4L101.79-2.4Q101.79-0.5 103.14-0.5L103.14-0.5Q105.24-0.5 108.16-4.7 111.09-8.9 111.69-13.15L111.69-13.15Q111.64-13.25 111.64-13.45L111.64-13.45Q111.64-14.9 114.24-16.05L114.24-16.05Q114.64-16.2 114.69-16.4ZM127.53-10.35L127.53-10.35Q127.13-10.35 127.13-10.65L127.13-10.65Q127.13-10.8 127.28-11.05L127.28-11.05Q130.23-15.65 130.23-17.35L130.23-17.35Q130.23-17.8 129.88-17.8L129.88-17.8Q128.38-17.8 122.83-11L122.83-11Q121.18-8.9 119.76-6.65 118.33-4.4 117.78-3.2L117.78-3.2 117.18-2.05Q116.58-0.85 115.33 0.18 114.08 1.2 112.73 1.2L112.73 1.2Q112.03 1.2 112.03 0.85L112.03 0.85Q112.03 0.55 112.46-0.4 112.88-1.35 113.48-2.5 114.08-3.65 114.68-4.75 115.28-5.85 115.68-6.6L115.68-6.6 116.13-7.35 121.38-16.5Q124.43-22.25 127.78-22.25L127.78-22.25Q128.23-22.25 128.23-21.9L128.23-21.9Q128.23-21.45 126.06-18.18 123.88-14.9 123.53-14L123.53-14Q123.43-13.7 123.43-13.65L123.43-13.65Q123.43-13.55 123.53-13.55 123.63-13.55 123.88-13.8L123.88-13.8Q127.63-18.05 131.83-21.35L131.83-21.35Q132.08-21.6 132.93-22.08 133.78-22.55 134.43-22.55L134.43-22.55Q135.38-22.55 135.38-20.9L135.38-20.9Q135.38-19.1 134.18-16.6 132.98-14.1 130.93-12.2L130.93-12.2 130.73-12Q130.53-11.85 130.31-11.68 130.08-11.5 129.73-11.25 129.38-11 129.03-10.83 128.68-10.65 128.28-10.5 127.88-10.35 127.53-10.35ZM143.33-16.95L143.33-16.95Q143.93-18.2 143.93-19.15L143.93-19.15Q143.93-19.95 143.43-19.95L143.43-19.95Q143.13-19.95 142.76-19.78 142.38-19.6 142.18-19.4L142.18-19.4 141.93-19.2Q140.38-17.85 138.06-14.28 135.73-10.7 135.73-9.7L135.73-9.7Q135.73-9.5 135.83-9.5L135.83-9.5Q136.13-9.5 137.16-10 138.18-10.5 140.11-12.35 142.03-14.2 143.33-16.95ZM141.08-5.5L141.08-5.5Q143.73-7.95 148.68-13.6L148.68-13.6Q148.83-13.75 148.93-13.75 149.03-13.75 149.03-13.55L149.03-13.55Q149.03-12.6 148.28-11.7L148.28-11.7Q144.58-7.6 141.73-4.85L141.73-4.85Q139.63-2.75 136.73-0.83 133.83 1.1 131.93 1.1L131.93 1.1Q129.63 1.1 129.63-2.1L129.63-2.1Q129.63-7.4 133.56-13.2 137.48-19 142.63-21.05L142.63-21.05Q144.78-21.95 146.53-21.95L146.53-21.95Q148.48-21.95 148.48-20.4L148.48-20.4Q148.48-17.5 144.38-13.75 140.28-10 135.18-8.05L135.18-8.05Q134.98-8 134.83-7.7L134.83-7.7Q134.08-5.65 134.08-4.05L134.08-4.05Q134.08-2.25 135.43-2.25L135.43-2.25Q137.58-2.25 141.08-5.5ZM186.43-30.35L186.43-30.35Q181.43-23.75 177.08-15.95 172.73-8.15 170.88-3.65L170.88-3.65 169.03 0.85Q168.23 2.55 167.63 2.55L167.63 2.55Q167.33 2.55 167.1 2.2 166.88 1.85 166.78 1.5L166.78 1.5 166.68 1.15Q166.03-2.9 166.03-7.35L166.03-7.35Q166.03-10.9 166.53-17.68 167.03-24.45 167.03-27.55L167.03-27.55Q167.03-28.05 166.83-28.05L166.83-28.05Q166.73-28.05 166.55-27.9 166.38-27.75 166.28-27.6L166.28-27.6 166.18-27.45Q164.23-24.65 161.7-19.48 159.18-14.3 157.73-10.55L157.73-10.55Q156.63-7.7 155.45-5.4 154.28-3.1 153.38-1.8 152.48-0.5 151.73 0.38 150.98 1.25 150.58 1.55L150.58 1.55 150.18 1.85Q149.58 2.3 149.33 2.3L149.33 2.3Q149.03 2.3 149.03 1.8L149.03 1.8Q149.03-2.9 163.48-26.6L163.48-26.6Q164.68-28.55 165.65-30.2 166.63-31.85 166.98-32.5L166.98-32.5 167.33-33.2Q169.43-39.05 170.53-39.05L170.53-39.05Q171.28-39.05 171.28-36.55L171.28-36.55Q171.63-24.5 171.63-16.3L171.63-16.3Q171.63-12.75 171.58-11.45L171.58-11.45Q171.68-10.65 172.03-10.65L172.03-10.65Q172.43-10.65 173.03-11.8L173.03-11.8Q178.38-22 179.78-25L179.78-25Q186.53-39.35 192.28-39.35L192.28-39.35Q192.98-39.35 192.98-38.95L192.98-38.95Q192.98-38.65 192.48-38.15L192.48-38.15Q191.18-36.65 186.43-30.35ZM196.62-16.35L196.62-16.35Q197.02-16.35 197.4-15.58 197.77-14.8 197.77-14.1L197.77-14.1Q197.77-13.5 197.6-12.9 197.42-12.3 197.27-12L197.27-12 197.07-11.65Q194.62-6.9 189.8-2.9 184.97 1.1 180.12 1.1L180.12 1.1Q177.57 1.1 176.37-0.73 175.17-2.55 175.17-5.4L175.17-5.4Q175.17-10.4 178.05-15.63 180.92-20.85 185.32-25.15L185.32-25.15Q183.42-25.35 181.77-26.6 180.12-27.85 180.12-29.65L180.12-29.65Q180.12-32.4 184.62-35.1 189.12-37.8 195.77-37.8L195.77-37.8Q197.87-37.8 201.1-37.27 204.32-36.75 206.07-36.75L206.07-36.75Q208.87-36.75 210.07-37.65L210.07-37.65Q210.27-37.7 210.42-37.7L210.42-37.7Q210.67-37.7 210.67-37.5 210.67-37.3 210.47-36.95L210.47-36.95Q209.47-35.35 207.77-34.35 206.07-33.35 204.02-33.35L204.02-33.35Q201.82-33.35 197.55-34.5 193.27-35.65 190.92-35.65L190.92-35.65Q188.27-35.65 185.87-34.15 183.47-32.65 183.47-30.05L183.47-30.05Q183.47-28.95 184.07-27.9 184.67-26.85 185.27-26.35L185.27-26.35 185.87-25.85 185.97-25.75Q191.82-31.3 196.47-32.35L196.47-32.35Q196.72-32.4 197.07-32.4L197.07-32.4Q197.57-32.4 197.57-32.1L197.57-32.1Q197.57-31.7 196.82-31.4L196.82-31.4Q195.42-30.85 192.82-28.55 190.22-26.25 187.32-22.88 184.42-19.5 182.3-14.83 180.17-10.15 180.17-5.8L180.17-5.8Q180.17-1.35 183.22-1.35L183.22-1.35Q185.42-1.35 187.55-2.78 189.67-4.2 191.3-6.5 192.92-8.8 194.12-11.15 195.32-13.5 196.12-15.9L196.12-15.9Q196.27-16.35 196.62-16.35Z" opacity="1" transform="matrix(1,0,0,1,0,0)" fill="#233565" class="wordmark-text-0" data-fill-palette-color="primary" id="text-0"></path></svg></g></svg></g></svg></g></svg></g><g transform="matrix(1,0,0,1,75.54432,0)"><svg viewBox="0 0 244.43135999999998 244.43135999999998" height="244.43135999999998" width="244.43135999999998"><g><svg viewBox="0 0 244.43135999999998 244.43135999999998" height="244.43135999999998" width="244.43135999999998"><g transform="matrix(1,0,0,1,64.60265593644992,76.16281260152934)"><svg viewBox="0 0 115.22604812710014 92.10573479694129" height="92.10573479694129" width="115.22604812710014"><g><svg xmlns="http://www.w3.org/2000/svg" xmlns:xlink="http://www.w3.org/1999/xlink" xmlns:a="http://ns.adobe.com/AdobeSVGViewerExtensions/3.0/" version="1.1" x="0" y="0" viewBox="0 -0.000004254926823626937 79.24081622916955 63.341004254926816" enable-background="new -12.98 -15.909 99 100" xml:space="preserve" height="92.10573479694129" width="115.22604812710014" class="icon-dxe-0" data-fill-palette-color="accent" id="dxe-0"><path d="M0 35.995C0 44.977 17.964 57.952 17.964 59.748V63.341H53.891V59.548C53.891 57.952 71.855 44.978 71.855 35.995 68.262 35.833 5.788 35.833 0 35.995" fill="#233565" data-fill-palette-color="accent"></path><path d="M71.855 31.443V27.812H0V31.443z" fill="#233565" data-fill-palette-color="accent"></path><path d="M63.565 13.776C60.399 15.161 57.323 16.575 56.216 17.352 56.037 17.827 55.856 18.25 55.68 18.664 55.489 19.109 55.292 19.57 55.09 20.115L53.686 23.891 51.124 20.782C50.992 20.621 50.738 20.352 50.526 20.352A1 1 0 0 0 50.4 20.366L48.663 20.714 47.87 19.129A1 1 0 0 0 47.813 19.03L45.892 19.99 44.846 17.92C44.76 17.77 44.367 17.405 44.002 17.405 43.679 17.405 43.309 17.727 43.117 17.918L41.936 19.1 40.44 18.352A2.5 2.5 0 0 0 39.384 18.109C38.495 18.109 37.634 18.647 36.822 19.71L32.84 17.401C34.444 13.594 38.402 9.68 41.095 8.413 42.982 7.524 44.707 7.093 46.368 7.093 48.648 7.093 50.411 7.888 52.076 8.739 52.625 8.535 53.394 8.2 54.297 7.784 52.571 6.106 50.504 5.154 48.436 6.188 46.639 2.595 38.256-0.399 31.071 6.787 27.478 4.991 17.898 4.991 16.101 13.973 14.305 12.177 10.712 12.177 8.915 15.769 3.526 13.973 1.729 25.349 1.729 25.349H69.992C69.993 25.348 68.083 17.392 63.565 13.776" fill="#233565" data-fill-palette-color="accent"></path><path fill-rule="evenodd" clip-rule="evenodd" d="M75.622 0.135C72.22 0.977 54.956 10.65 51.835 11.224 48.997 9.761 46.62 8.377 42.084 10.512 39.981 11.502 38.991 12.554 37.066 15.707 39.854 13.873 40.268 15.672 41.477 16.277 43.897 13.858 46.316 15.672 46.92 16.881 48.13 16.277 49.34 16.881 49.944 18.09 51.261 17.827 52.235 18.482 52.914 19.306 53.408 17.978 53.84 17.181 54.236 15.992 56.408 13.645 74.955 6.905 77.781 4.745 80.61 2.587 79.023-0.708 75.622 0.135" fill="#233565" data-fill-palette-color="accent"></path></svg></g></svg></g><g id="text-0"><path d="M17.569 84.422v0l-1.943 4.883c1.793 2.098 4.047 4.6 6.761 7.506v0c0.16 0.135 0.375 0.334 0.646 0.598 0.275 0.273 0.768 0.81 1.479 1.611 0.715 0.81 1.361 1.614 1.938 2.411 0.581 0.806 1.151 1.747 1.711 2.822 0.559 1.075 0.919 2.081 1.079 3.018v0c0.047 0.239 0.041 0.432-0.018 0.579v0c-0.083 0.208-0.259 0.259-0.529 0.152v0c-0.172-0.068-0.371-0.183-0.598-0.345-0.225-0.167-0.407-0.315-0.548-0.442v0l-0.184-0.179c-2.077-1.991-6.33-7.018-12.76-15.08v0l-0.527 1.324c-0.127 0.319-0.282 0.442-0.466 0.369v0c-0.147-0.059-0.26-0.196-0.337-0.412-0.071-0.213-0.074-0.402-0.009-0.567v0l0.641-1.61-4.085-5.236c-0.72-0.869-1.417-1.437-2.091-1.706v0c-0.337-0.134-0.642-0.181-0.914-0.14-0.27 0.035-0.456 0.092-0.558 0.172v0l-0.169 0.157c-0.18 0.149-0.334 0.197-0.463 0.146v0c-0.104-0.041-0.17-0.135-0.197-0.281-0.027-0.146-0.024-0.262 0.01-0.348v0c0.715-2.173 1.528-4.402 2.438-6.689v0c0.761-1.913 1.43-3.433 2.006-4.56v0c0.134-0.337 0.336-0.452 0.606-0.345v0c0.104 0.041 0.209 0.118 0.313 0.231v0c1.43 1.421 2.515 2.666 3.255 3.735v0c0.077 0.109 0.078 0.258 0.002 0.448v0c-0.066 0.166-0.224 0.198-0.475 0.098v0c-0.383-0.323-0.835-0.588-1.356-0.795v0c-1.643-0.654-2.799-0.141-3.468 1.539v0c-0.468 1.177-0.496 2.104-0.083 2.78v0c0.969 1.671 3.054 4.408 6.257 8.21v0c0.224-0.564 0.55-1.4 0.977-2.509 0.433-1.106 0.753-1.92 0.96-2.441v0c0.068-0.172 0.132-0.27 0.193-0.296v0c0.026-0.011 0.06-0.008 0.103 0.009v0c0.147 0.059 0.268 0.21 0.363 0.453 0.101 0.246 0.114 0.489 0.04 0.73z" fill="#233565" data-fill-palette-color="accent"></path><path d="M29.717 64.429v0c0.143-0.153 0.255-0.206 0.335-0.16v0c0.12 0.07 0.21 0.23 0.269 0.479v0c0.09 0.343 0.186 0.824 0.291 1.444 0.106 0.628 0.176 1.005 0.209 1.131v0l0.32 0.727c0.91 1.084 1.735 2.411 2.473 3.983 0.744 1.575 1.227 3.246 1.447 5.012 0.22 1.765 0.004 3.206-0.65 4.322v0c-0.81 1.384-2.061 1.58-3.752 0.59v0c-1.503-0.88-2.844-2.319-4.022-4.317-1.169-2-1.92-4.138-2.254-6.413-0.329-2.272-0.053-4.16 0.827-5.664v0c0.64-1.093 1.387-1.39 2.242-0.889v0c0.473 0.277 0.971 0.882 1.494 1.815v0c0.009 0.036 0.031 0.064 0.066 0.085 0.04 0.023 0.071 0.015 0.094-0.025v0c0.133-0.893 0.337-1.6 0.611-2.12zM28.795 67.628v0c-0.59-0.56-1.07-0.948-1.44-1.164v0c-0.82-0.48-1.39-0.447-1.71 0.1v0c-0.447 0.763-0.3 2.118 0.441 4.066 0.743 1.957 1.754 3.853 3.034 5.688 1.286 1.839 2.436 3.055 3.45 3.649v0c0.74 0.433 1.264 0.388 1.57-0.135v0c0.48-0.82 0.234-2.28-0.739-4.379-0.97-2.105-2.215-3.759-3.735-4.963v0c-0.053-0.001-0.117-0.023-0.191-0.066v0c-0.569-0.333-0.778-1.14-0.625-2.419v0c0.027-0.19 0.009-0.316-0.055-0.377z" fill="#233565" data-fill-palette-color="accent"></path><path d="M46.797 44.759v0c0.175-0.115 0.296-0.141 0.362-0.077v0c0.1 0.096 0.15 0.273 0.15 0.529v0c0.007 0.355-0.012 0.845-0.057 1.471-0.044 0.636-0.065 1.019-0.062 1.149v0l0.14 0.782c0.63 1.267 1.12 2.751 1.469 4.453 0.354 1.706 0.43 3.443 0.23 5.211-0.201 1.768-0.75 3.117-1.647 4.048v0c-1.113 1.155-2.375 1.052-3.786-0.307v0c-1.254-1.209-2.22-2.922-2.896-5.141-0.667-2.218-0.895-4.473-0.685-6.763 0.214-2.286 0.926-4.056 2.134-5.311v0c0.879-0.912 1.675-1.025 2.388-0.338v0c0.394 0.38 0.737 1.085 1.026 2.116v0c0.001 0.037 0.015 0.07 0.044 0.097 0.033 0.032 0.066 0.031 0.098-0.002v0c0.339-0.837 0.703-1.476 1.092-1.917zM45.149 47.652v0c-0.442-0.682-0.817-1.173-1.126-1.47v0c-0.684-0.659-1.246-0.761-1.686-0.305v0c-0.614 0.637-0.789 1.989-0.526 4.056 0.263 2.077 0.8 4.157 1.613 6.243 0.818 2.09 1.65 3.542 2.496 4.356v0c0.618 0.595 1.137 0.674 1.559 0.238v0c0.659-0.684 0.763-2.161 0.31-4.43-0.448-2.274-1.27-4.174-2.465-5.702v0c-0.052-0.013-0.108-0.049-0.17-0.109v0c-0.475-0.458-0.488-1.291-0.04-2.498v0c0.071-0.179 0.083-0.305 0.035-0.379z" fill="#233565" data-fill-palette-color="accent"></path><path d="M63.734 42.476v0c0.055-0.169 0.133-0.404 0.235-0.705 0.098-0.307 0.27-0.927 0.517-1.861 0.244-0.939 0.453-1.881 0.627-2.825 0.173-0.944 0.318-2.077 0.434-3.399 0.119-1.316 0.149-2.57 0.089-3.761v0c-0.006-0.05-0.02-0.095-0.044-0.135v0l-0.075-0.071c-0.183-0.001-0.364 0.049-0.541 0.151v0c-0.841 0.483-1.524 1.712-2.048 3.687-0.522 1.966-0.806 3.917-0.851 5.854-0.048 1.945 0.109 3.232 0.471 3.861v0c0.158 0.275 0.345 0.35 0.562 0.225v0c0.235-0.135 0.443-0.475 0.624-1.021zM69.488 37.449v0c0.351-1.297 0.756-3.109 1.216-5.435v0c0.024-0.09 0.057-0.147 0.097-0.17 0.04-0.023 0.083 0.006 0.129 0.086v0c0.214 0.372 0.276 0.819 0.188 1.342v0c-0.533 2.437-1.048 4.516-1.542 6.238v0c-1.073 3.485-1.973 5.436-2.7 5.854v0c-0.275 0.158-0.497 0.088-0.668-0.21v0c-0.214-0.372-0.364-1.065-0.453-2.08-0.091-1.02-0.119-1.956-0.082-2.807v0l0.016-1.264c0.024-0.143 0.013-0.255-0.033-0.335v0c-0.023-0.04-0.055-0.049-0.094-0.026v0c-0.08 0.046-0.149 0.177-0.208 0.393v0c-0.199 1.058-0.477 2.184-0.834 3.378-0.357 1.194-0.663 2.138-0.919 2.833v0l-0.368 0.988c-0.432 1.062-0.843 1.705-1.233 1.929v0l-0.14 0.035c-0.342 0.173-0.677-0.026-1.005-0.599v0c-0.854-1.488-1.307-3.488-1.357-6-0.05-2.513 0.353-4.951 1.21-7.315 0.854-2.37 2.056-4 3.607-4.89v0c0.155-0.089 0.309-0.158 0.462-0.209 0.154-0.05 0.272-0.084 0.354-0.1 0.079-0.022 0.161-0.031 0.246-0.027v0l0.101-0.024c0.04-0.023 0.072-0.08 0.097-0.17v0c-0.131-8.63 0.059-14.746 0.569-18.349v0c0.134-1.119 0.329-1.753 0.587-1.9v0c0.097-0.056 0.192-0.004 0.284 0.156v0c0.237 0.412 0.405 1.434 0.504 3.066v0c0.158 7.26 0.244 12.305 0.257 15.136v0c0.048 5.132 0.062 8.224 0.042 9.278v0c-0.015 2.2 0.079 3.478 0.283 3.832v0c0.079 0.137 0.178 0.172 0.299 0.103v0c0.097-0.056 0.189-0.154 0.275-0.296 0.092-0.144 0.176-0.329 0.252-0.555 0.076-0.226 0.145-0.437 0.208-0.633 0.06-0.187 0.128-0.42 0.203-0.699 0.076-0.279 0.125-0.464 0.15-0.554z" fill="#233565" data-fill-palette-color="accent"></path><path d="M80.654 33.941v0c0.086-0.968 0.279-2.122 0.578-3.463 0.301-1.334 0.587-2.43 0.858-3.287v0l0.404-1.254c0.177-0.52 0.417-0.825 0.721-0.914v0c0.241-0.071 0.395 0.011 0.464 0.245v0l-0.009 0.353c-0.196 2.204-0.084 4.022 0.338 5.452v0c0.34 1.152 0.872 2.013 1.598 2.584 0.721 0.579 1.623 0.708 2.705 0.389v0c1.627-0.48 2.731-1.576 3.313-3.288 0.574-1.717 0.618-3.398 0.133-5.044v0c-0.414-1.405-1.488-3.273-3.221-5.604-1.739-2.329-2.746-3.958-3.02-4.888v0c-0.595-2.019-0.209-3.894 1.159-5.625 1.36-1.735 3.068-2.906 5.125-3.513v0c0.373-0.11 0.744-0.195 1.111-0.256 0.374-0.062 0.79-0.109 1.248-0.141 0.467-0.028 0.861 0.028 1.185 0.167 0.323 0.139 0.533 0.373 0.63 0.702v0c0.127 0.43 0.04 1.257-0.259 2.481-0.302 1.217-0.578 2.159-0.829 2.824v0c-0.12 0.152-0.234 0.244-0.342 0.276v0c-0.152 0.045-0.266-0.063-0.342-0.322v0c-0.179-0.608-0.359-1.452-0.541-2.534v0c-0.498-1.69-1.396-2.344-2.694-1.961v0c-1.108 0.327-1.932 0.983-2.474 1.968-0.548 0.987-0.663 2.022-0.344 3.104v0c0.422 1.43 1.513 3.276 3.273 5.536 1.768 2.265 2.857 4.09 3.266 5.477v0c0.767 2.601 0.372 5.043-1.184 7.325-1.554 2.288-3.61 3.809-6.167 4.563v0c-0.43 0.127-0.962 0.236-1.596 0.326-0.634 0.091-1.313 0.143-2.038 0.157-0.725 0.014-1.375-0.09-1.95-0.312-0.573-0.216-0.926-0.552-1.061-1.008v0c-0.05-0.171-0.063-0.343-0.038-0.515z" fill="#233565" data-fill-palette-color="accent"></path><path d="M113.668 23.552v0c0.911-0.988 2.108-2.407 3.591-4.258v0c0.063-0.069 0.118-0.104 0.164-0.105 0.046-0.002 0.071 0.043 0.075 0.135v0c0.017 0.429-0.134 0.854-0.453 1.277v0c-1.6 1.914-3.017 3.521-4.252 4.819v0c-2.603 2.728-4.347 4.11-5.23 4.146v0c-0.31 0.013-0.473-0.185-0.49-0.594v0c-0.019-0.468 0.13-1.184 0.448-2.149 0.324-0.964 0.653-1.816 0.985-2.556v0l0.502-1.07c0.477-0.944 1.27-2.558 2.378-4.842 1.109-2.291 2.18-4.451 3.214-6.481 1.04-2.03 2.022-3.867 2.945-5.509v0l-2.67 0.109c-0.231 0.009-0.349-0.045-0.353-0.164-0.005-0.112 0.083-0.228 0.263-0.348 0.173-0.119 0.362-0.183 0.567-0.191v0c0.494-0.02 1.364-0.065 2.609-0.136v0c1.037-1.786 1.93-3.202 2.68-4.25v0c0.663-0.912 1.13-1.373 1.4-1.385v0c0.158-0.006 0.242 0.093 0.25 0.297v0c0.019 0.475-0.368 1.508-1.162 3.099v0l-1.071 2.153 3.491-0.142c0.204-0.008 0.309 0.044 0.314 0.156v0c0.015 0.363-0.308 0.557-0.967 0.584v0l-3.175 0.129c-4.819 10.103-7.354 15.397-7.605 15.883v0c-0.879 1.773-1.308 2.919-1.287 3.44v0c0.006 0.158 0.069 0.235 0.188 0.23v0c0.31-0.013 1.194-0.772 2.651-2.277z" fill="#233565" data-fill-palette-color="accent"></path><path d="M142.686 18.368v0c0.197 0.073 0.289 0.155 0.276 0.246v0c-0.018 0.137-0.131 0.282-0.337 0.434v0c-0.282 0.215-0.688 0.49-1.219 0.826-0.538 0.341-0.859 0.551-0.964 0.63v0l-0.546 0.576c-0.648 1.258-1.554 2.532-2.719 3.82-1.165 1.295-2.52 2.386-4.063 3.271-1.543 0.885-2.956 1.242-4.237 1.071v0c-1.589-0.213-2.254-1.29-1.994-3.233v0c0.231-1.727 1.04-3.519 2.427-5.378 1.393-1.851 3.074-3.37 5.045-4.557 1.969-1.181 3.817-1.656 5.543-1.425v0c1.256 0.168 1.818 0.743 1.687 1.724v0c-0.073 0.543-0.438 1.236-1.098 2.08v0c-0.03 0.023-0.047 0.054-0.052 0.093-0.006 0.046 0.014 0.072 0.059 0.078v0c0.875-0.222 1.606-0.308 2.192-0.256zM139.378 18.754v0c0.288-0.76 0.461-1.353 0.518-1.778v0c0.126-0.942-0.125-1.455-0.753-1.539v0c-0.876-0.117-2.07 0.542-3.58 1.977-1.518 1.441-2.876 3.107-4.074 4.997-1.199 1.897-1.877 3.427-2.033 4.591v0c-0.114 0.85 0.13 1.316 0.732 1.397v0c0.942 0.126 2.193-0.665 3.753-2.374 1.567-1.708 2.612-3.495 3.135-5.363v0c-0.02-0.049-0.024-0.116-0.013-0.201v0c0.088-0.654 0.751-1.158 1.99-1.511v0c0.186-0.048 0.295-0.114 0.325-0.196z" fill="#233565" data-fill-palette-color="accent"></path><path d="M159.75 28.86v0c-0.172-0.068-0.233-0.166-0.182-0.295v0c0.024-0.061 0.091-0.131 0.199-0.208v0c2.001-1.447 3.142-2.526 3.421-3.239v0c0.075-0.19 0.039-0.315-0.108-0.373v0c-0.633-0.249-2.678 0.599-6.137 2.544v0c-1.039 0.605-2.046 1.263-3.02 1.972-0.976 0.715-1.677 1.28-2.101 1.694v0l-0.664 0.58c-0.45 0.405-1.023 0.718-1.72 0.94-0.697 0.222-1.328 0.222-1.894 0v0c-0.295-0.116-0.413-0.248-0.355-0.395v0c0.048-0.123 0.24-0.349 0.575-0.678 0.335-0.329 0.724-0.687 1.166-1.073 0.443-0.386 0.88-0.76 1.313-1.122 0.441-0.365 0.807-0.672 1.096-0.92v0l0.47-0.357 5.578-4.476c2.235-1.915 4.058-2.595 5.47-2.04v0c0.19 0.075 0.257 0.186 0.199 0.333v0c-0.075 0.19-0.84 0.794-2.296 1.81-1.456 1.016-2.332 1.685-2.629 2.008v0c-0.094 0.112-0.144 0.177-0.152 0.196v0c-0.017 0.043-0.004 0.073 0.04 0.09 0.043 0.017 0.137-0.006 0.282-0.07v0c2.281-1.167 4.575-2.098 6.884-2.793v0c0.148-0.07 0.442-0.131 0.881-0.185 0.436-0.063 0.789-0.041 1.059 0.065v0c0.399 0.157 0.462 0.582 0.19 1.277v0c-0.299 0.762-0.907 1.568-1.824 2.42-0.916 0.852-1.961 1.509-3.135 1.969v0l-0.18 0.078c-0.11 0.028-0.226 0.06-0.347 0.098-0.127 0.035-0.285 0.076-0.473 0.122-0.191 0.053-0.373 0.084-0.547 0.094-0.176 0.016-0.361 0.025-0.553 0.027-0.19-0.004-0.359-0.035-0.506-0.093z" fill="#233565" data-fill-palette-color="accent"></path><path d="M183.225 36.295v0c0.538-0.326 0.924-0.668 1.16-1.027v0c0.199-0.303 0.205-0.517 0.017-0.64v0c-0.116-0.076-0.267-0.128-0.454-0.156-0.181-0.024-0.336-0.023-0.464 0.004v0l-0.216 0.023c-0.918 0.123-2.259 0.573-4.024 1.348-1.77 0.772-2.78 1.348-3.03 1.729v0c-0.047 0.072-0.051 0.12-0.012 0.145v0c0.116 0.076 0.428 0.147 0.937 0.214 0.509 0.066 1.358-0.012 2.546-0.235 1.188-0.222 2.368-0.691 3.54-1.405zM177.691 41.944v0c1.607-0.271 4.046-0.86 7.318-1.766v0c0.097-0.015 0.162-0.012 0.195 0.01 0.039 0.025 0.033 0.077-0.018 0.153v0c-0.235 0.359-0.606 0.616-1.112 0.774v0c-2.415 0.624-4.503 1.105-6.263 1.441v0c-1.316 0.273-2.757 0.412-4.324 0.417-1.576 0.007-2.722-0.225-3.439-0.696v0c-0.871-0.572-0.911-1.462-0.117-2.67v0c1.315-2.002 3.433-3.611 6.355-4.826 2.922-1.215 5.612-1.573 8.069-1.072v0c1.035 0.191 1.884 0.503 2.546 0.938v0c0.739 0.485 0.915 1.023 0.527 1.613v0c-0.717 1.092-2.316 1.838-4.797 2.238-2.481 0.4-4.926 0.337-7.337-0.188v0c-0.088-0.034-0.198-0.011-0.329 0.068v0c-0.794 0.584-1.39 1.179-1.788 1.786v0c-0.446 0.678-0.412 1.186 0.101 1.523v0c0.811 0.532 2.282 0.618 4.413 0.257z" fill="#233565" data-fill-palette-color="accent"></path><path d="M227.402 75.672v0c-3.708-0.519-7.58-0.776-11.615-0.772-4.041 0.008-7.151 0.145-9.331 0.411v0l-3.274 0.392c-0.851 0.06-1.343-0.028-1.475-0.264v0c-0.068-0.121-0.057-0.263 0.034-0.427 0.09-0.164 0.193-0.304 0.308-0.422v0l0.173-0.176c1.456-1.155 3.059-2.222 4.81-3.202v0c1.405-0.786 3.5-1.826 6.285-3.119 2.782-1.299 4.783-2.29 6.004-2.974v0c0.196-0.11 0.271-0.205 0.226-0.285v0c-0.023-0.04-0.082-0.079-0.178-0.116-0.096-0.037-0.184-0.059-0.265-0.067v0l-0.124 0.001c-1.532-0.156-3.598-0.161-6.2-0.013-2.596 0.144-4.793 0.345-6.592 0.603v0c-1.374 0.194-2.641 0.313-3.804 0.359-1.171 0.043-2.111 0.032-2.819-0.033-0.712-0.07-1.323-0.156-1.834-0.256-0.513-0.106-0.871-0.205-1.072-0.296v0l-0.312-0.132c-0.311-0.136-0.495-0.256-0.553-0.359v0c-0.064-0.115 0.004-0.229 0.205-0.342v0c1.854-1.037 9.05-1.32 21.586-0.848v0c1.036 0.04 1.987 0.072 2.854 0.093 0.863 0.016 1.46 0.022 1.791 0.019v0l0.53-0.025c2.773-0.463 4.282-0.475 4.528-0.038v0c0.164 0.294-0.246 0.716-1.231 1.267v0c-4.679 2.8-8.634 5.103-11.865 6.911v0c-1.405 0.786-2.369 1.314-2.891 1.583v0c-0.292 0.209-0.399 0.382-0.322 0.52v0c0.09 0.161 0.426 0.234 1.008 0.219v0c5.205-0.144 8.552-0.27 10.041-0.378v0c7.153-0.501 11.362 0.38 12.628 2.644v0c0.155 0.276 0.154 0.458-0.001 0.545v0c-0.121 0.068-0.334 0.058-0.639-0.028v0c-0.88-0.181-3.084-0.512-6.614-0.995z" fill="#233565" data-fill-palette-color="accent"></path><path d="M226.185 99.871v0c0.049 0.178-0.073 0.393-0.366 0.645-0.292 0.258-0.59 0.43-0.896 0.514v0c-0.261 0.072-0.532 0.106-0.814 0.101-0.282-0.004-0.498-0.02-0.649-0.047v0l-0.266-0.07c-2.362-0.499-4.704-1.557-7.026-3.176-2.324-1.625-3.776-3.494-4.359-5.606v0c-0.307-1.113-0.135-2.04 0.517-2.781 0.651-0.741 1.597-1.282 2.838-1.624v0c2.176-0.6 4.575-0.587 7.197 0.038 2.623 0.625 5.137 1.637 7.542 3.034v0c-0.145-0.85-0.044-1.71 0.305-2.579 0.349-0.87 0.915-1.412 1.697-1.628v0c1.196-0.33 2.652 0.323 4.37 1.957 1.719 1.641 2.977 3.909 3.775 6.804v0c0.253 0.916 0.458 2.109 0.616 3.577 0.159 1.469 0.343 2.585 0.554 3.349v0c0.335 1.215 0.772 2.032 1.313 2.451v0c0.042 0.077 0.072 0.151 0.091 0.222v0c0.03 0.108 0.003 0.174-0.079 0.196-0.089 0.025-0.222 0.013-0.399-0.034v0c-0.819-0.24-1.547-0.672-2.186-1.297-0.642-0.617-1.087-1.374-1.334-2.27v0c-0.265-0.961-0.402-2.439-0.412-4.435-0.011-2.002-0.158-3.516-0.44-4.54v0c-0.319-1.158-0.95-2.168-1.893-3.031-0.943-0.863-1.98-1.138-3.113-0.826v0c-0.477 0.132-0.909 0.391-1.295 0.778-0.386 0.387-0.651 0.741-0.796 1.062v0l-0.216 0.48-0.049 0.085c3.121 1.884 5.189 3.775 6.205 5.672v0c0.049 0.103 0.094 0.231 0.136 0.383v0c0.06 0.216 0.026 0.342-0.101 0.378v0c-0.178 0.049-0.376-0.071-0.592-0.361v0c-0.41-0.544-1.271-1.245-2.582-2.101-1.317-0.855-2.885-1.713-4.704-2.574-1.817-0.854-3.874-1.465-6.172-1.831-2.292-0.368-4.385-0.29-6.281 0.233v0c-1.94 0.535-2.727 1.467-2.36 2.797v0c0.265 0.961 0.837 1.819 1.716 2.576 0.878 0.751 1.914 1.344 3.109 1.781 1.2 0.429 2.384 0.763 3.552 1.003 1.168 0.239 2.322 0.39 3.462 0.452v0c0.215 0.009 0.343 0.09 0.385 0.243z" fill="#233565" data-fill-palette-color="accent"></path><path d="M29.061 166.964v0l-2.213-5.361c-3.036-0.281-6.741-0.533-11.116-0.755v0c-0.235 0.019-0.564 0.026-0.987 0.022-0.42 0.002-1.22-0.042-2.4-0.133-1.188-0.095-2.32-0.234-3.396-0.419-1.078-0.19-2.25-0.495-3.516-0.915-1.268-0.426-2.327-0.949-3.175-1.57v0c-0.22-0.152-0.362-0.307-0.428-0.466v0c-0.096-0.232 0.006-0.409 0.305-0.532v0c0.183-0.076 0.426-0.136 0.728-0.183 0.311-0.043 0.572-0.068 0.782-0.077v0l0.279 0.003c3.179-0.013 10.409 0.7 21.69 2.139v0l-0.601-1.454c-0.144-0.348-0.112-0.564 0.096-0.65v0c0.159-0.065 0.351-0.041 0.576 0.072 0.217 0.11 0.363 0.257 0.439 0.44v0l0.729 1.766 7.259 1.009c1.242 0.137 2.231 0.053 2.969-0.252v0c0.372-0.154 0.648-0.35 0.829-0.588 0.189-0.235 0.292-0.424 0.311-0.568v0l0.023-0.256c0.03-0.255 0.113-0.411 0.247-0.466v0c0.116-0.048 0.24-0.024 0.372 0.072 0.136 0.087 0.224 0.179 0.264 0.276v0c1.094 2.268 2.159 4.659 3.197 7.172v0c0.866 2.098 1.508 3.818 1.926 5.159v0c0.151 0.366 0.077 0.611-0.222 0.734v0c-0.116 0.048-0.255 0.066-0.417 0.054v0c-2.223-0.025-4.042-0.177-5.457-0.456v0c-0.14-0.028-0.253-0.145-0.338-0.353v0c-0.076-0.183 0.024-0.331 0.298-0.444v0c0.55-0.034 1.114-0.171 1.694-0.411v0c1.799-0.743 2.318-2.038 1.555-3.886v0c-0.531-1.287-1.221-2.041-2.069-2.262v0c-2.047-0.583-5.803-1.149-11.27-1.697v0c0.257 0.622 0.641 1.535 1.151 2.737 0.513 1.209 0.888 2.1 1.125 2.673v0c0.076 0.183 0.102 0.308 0.08 0.374v0c-0.014 0.034-0.046 0.062-0.095 0.082v0c-0.159 0.065-0.37 0.038-0.633-0.081-0.27-0.117-0.467-0.3-0.591-0.549z" fill="#233565" data-fill-palette-color="accent"></path><path d="M36.582 187.356v0c0.074 0.217 0.069 0.35-0.016 0.401v0c-0.131 0.077-0.332 0.081-0.603 0.011v0c-0.376-0.092-0.895-0.257-1.556-0.495-0.658-0.232-1.055-0.366-1.191-0.4v0l-0.88-0.089c-1.532 0.299-3.257 0.383-5.174 0.25-1.914-0.127-3.781-0.557-5.602-1.29-1.826-0.73-3.101-1.709-3.826-2.936v0c-0.899-1.523-0.414-2.836 1.455-3.94v0c1.653-0.976 3.758-1.495 6.312-1.555 2.56-0.064 5.026 0.354 7.396 1.253 2.374 0.905 4.049 2.184 5.025 3.838v0c0.708 1.199 0.588 2.079-0.361 2.639v0c-0.511 0.302-1.358 0.457-2.541 0.466v0c-0.036-0.009-0.077-0.001-0.122 0.026-0.04 0.023-0.048 0.055-0.025 0.095v0c0.788 0.608 1.358 1.183 1.709 1.726zM34.008 184.75v0c0.854-0.267 1.486-0.521 1.895-0.763v0c0.898-0.53 1.169-1.096 0.813-1.699v0c-0.497-0.841-1.885-1.427-4.165-1.759-2.28-0.332-4.65-0.373-7.109-0.124-2.459 0.249-4.248 0.704-5.367 1.365v0c-0.813 0.48-1.048 1.01-0.705 1.589v0c0.534 0.903 2.072 1.451 4.614 1.643 2.548 0.189 4.812-0.125 6.79-0.94v0c0.026-0.046 0.085-0.096 0.176-0.15v0c0.619-0.366 1.505-0.138 2.657 0.684v0c0.167 0.139 0.3 0.191 0.401 0.154z" fill="#233565" data-fill-palette-color="accent"></path><path d="M52.817 205.474v0c0.123 0.193 0.149 0.324 0.078 0.393v0c-0.109 0.106-0.303 0.156-0.583 0.152v0c-0.387-0.001-0.93-0.04-1.629-0.115-0.694-0.071-1.111-0.108-1.251-0.11v0l-0.877 0.12c-1.419 0.651-3.076 1.137-4.971 1.457-1.89 0.326-3.806 0.346-5.748 0.061-1.946-0.281-3.416-0.934-4.408-1.957v0c-1.231-1.269-1.068-2.66 0.49-4.171v0c1.378-1.337 3.302-2.335 5.771-2.993 2.474-0.663 4.968-0.835 7.483-0.517 2.52 0.323 4.448 1.173 5.786 2.551v0c0.97 0.999 1.059 1.883 0.268 2.65v0c-0.426 0.414-1.213 0.763-2.361 1.05v0c-0.037-0.001-0.075 0.018-0.113 0.054-0.033 0.032-0.034 0.065-0.001 0.098v0c0.909 0.406 1.597 0.831 2.066 1.277zM49.704 203.544v0c0.768-0.46 1.322-0.855 1.662-1.186v0c0.748-0.726 0.879-1.34 0.392-1.842v0c-0.68-0.701-2.167-0.945-4.462-0.732-2.295 0.213-4.608 0.728-6.939 1.547-2.332 0.819-3.964 1.681-4.897 2.586v0c-0.677 0.657-0.782 1.227-0.313 1.71v0c0.731 0.753 2.354 0.925 4.872 0.515 2.522-0.415 4.648-1.25 6.379-2.508v0c0.015-0.051 0.06-0.113 0.136-0.187v0c0.516-0.501 1.431-0.487 2.743 0.042v0c0.195 0.096 0.337 0.115 0.427 0.055z" fill="#233565" data-fill-palette-color="accent"></path><path d="M58.737 220.89v0c0.194-0.035 0.464-0.091 0.811-0.168 0.341-0.081 1.025-0.267 2.053-0.559 1.025-0.301 2.035-0.633 3.028-0.997 0.996-0.37 2.154-0.872 3.474-1.508 1.311-0.632 2.516-1.313 3.616-2.04v0c0.046-0.027 0.081-0.064 0.107-0.11v0l0.019-0.115c-0.107-0.174-0.258-0.316-0.453-0.425v0c-0.931-0.525-2.479-0.481-4.642 0.132-2.164 0.614-4.177 1.444-6.041 2.493-1.867 1.054-2.996 1.928-3.388 2.624v0c-0.172 0.305-0.14 0.523 0.096 0.656v0c0.264 0.149 0.704 0.155 1.32 0.017zM66.757 223.513v0c1.42-0.396 3.365-1.031 5.834-1.904v0c0.099-0.028 0.171-0.028 0.218-0.003 0.046 0.026 0.045 0.082-0.004 0.168v0c-0.233 0.414-0.624 0.724-1.172 0.931v0c-2.614 0.875-4.874 1.559-6.781 2.052v0c-3.912 0.946-6.27 1.193-7.075 0.739v0c-0.305-0.172-0.365-0.421-0.18-0.749v0c0.23-0.408 0.803-0.941 1.719-1.599 0.916-0.658 1.786-1.213 2.609-1.666v0l1.209-0.693c0.148-0.061 0.246-0.134 0.295-0.22v0c0.026-0.046 0.019-0.08-0.022-0.103v0c-0.086-0.049-0.251-0.039-0.493 0.028v0c-1.113 0.403-2.336 0.77-3.667 1.104-1.335 0.339-2.403 0.581-3.205 0.727v0l-1.154 0.213c-1.247 0.183-2.086 0.153-2.517-0.09v0l-0.11-0.107c-0.364-0.228-0.368-0.658-0.012-1.29v0c0.93-1.65 2.573-3.208 4.931-4.675 2.359-1.458 4.902-2.448 7.628-2.972 2.727-0.523 4.949-0.301 6.669 0.668v0c0.172 0.097 0.325 0.202 0.458 0.315 0.136 0.122 0.235 0.216 0.296 0.281 0.062 0.065 0.116 0.137 0.162 0.216v0l0.076 0.088c0.04 0.023 0.113 0.022 0.217-0.002v0c8.111-4.995 14.018-8.267 17.724-9.815v0c1.139-0.502 1.852-0.672 2.139-0.509v0c0.103 0.058 0.107 0.174 0.01 0.346v0c-0.259 0.46-1.131 1.2-2.615 2.219v0c-6.8 4.242-11.542 7.167-14.228 8.773v0c-4.832 2.942-7.756 4.703-8.772 5.282v0c-2.091 1.223-3.246 2.03-3.466 2.421v0c-0.084 0.149-0.06 0.261 0.072 0.336v0c0.103 0.058 0.248 0.091 0.434 0.097 0.186 0.006 0.407-0.017 0.664-0.069 0.26-0.058 0.499-0.113 0.717-0.164 0.209-0.049 0.467-0.116 0.772-0.201 0.306-0.085 0.512-0.143 0.62-0.173z" fill="#233565" data-fill-palette-color="accent"></path><path d="M76.576 232.845v0c0.655-0.849 1.517-1.806 2.584-2.873 1.076-1.071 1.99-1.925 2.742-2.56v0l1.12-0.925c0.474-0.386 0.88-0.53 1.216-0.434v0c0.266 0.076 0.361 0.248 0.285 0.514v0l-0.218 0.329c-1.488 1.935-2.459 3.692-2.912 5.271v0c-0.364 1.269-0.379 2.387-0.045 3.354 0.335 0.961 1.102 1.614 2.301 1.958v0c1.795 0.515 3.469 0.147 5.023-1.104 1.555-1.257 2.593-2.795 3.115-4.615v0c0.446-1.554 0.55-3.93 0.314-7.128-0.238-3.192-0.209-5.305 0.087-6.339v0c0.638-2.226 2.104-3.746 4.396-4.557 2.29-0.805 4.574-0.882 6.852-0.229v0c0.412 0.118 0.809 0.256 1.189 0.413 0.379 0.164 0.794 0.368 1.245 0.615 0.451 0.246 0.785 0.531 1.001 0.853 0.218 0.317 0.275 0.656 0.172 1.017v0c-0.138 0.482-0.708 1.201-1.71 2.156-0.997 0.963-1.809 1.678-2.437 2.143v0c-0.206 0.071-0.369 0.09-0.49 0.056v0c-0.165-0.047-0.206-0.214-0.124-0.499v0c0.193-0.672 0.528-1.565 1.004-2.678v0c0.535-1.865 0.082-3.004-1.357-3.416v0c-1.224-0.351-2.381-0.23-3.472 0.363-1.09 0.594-1.807 1.49-2.151 2.689v0c-0.453 1.579-0.527 3.944-0.221 7.093 0.299 3.147 0.228 5.489-0.212 7.023v0c-0.826 2.88-2.637 4.924-5.435 6.134-2.796 1.203-5.608 1.399-8.437 0.587v0c-0.476-0.136-1.036-0.349-1.681-0.636-0.645-0.288-1.31-0.64-1.994-1.056-0.684-0.416-1.23-0.895-1.637-1.437-0.399-0.547-0.527-1.071-0.383-1.572v0c0.055-0.19 0.144-0.36 0.27-0.51z" fill="#233565" data-fill-palette-color="accent"></path><path d="M113.979 238.027v0c1.076-1.008 2.507-2.47 4.292-4.386v0c0.075-0.07 0.139-0.104 0.191-0.102 0.046 0.002 0.068 0.052 0.065 0.15v0c-0.015 0.475-0.215 0.931-0.599 1.367v0c-1.913 1.984-3.601 3.636-5.064 4.955v0c-3.089 2.798-5.118 4.181-6.087 4.15v0c-0.35-0.011-0.517-0.241-0.502-0.69v0c0.017-0.528 0.241-1.306 0.67-2.335 0.436-1.036 0.866-1.946 1.287-2.731v0l0.641-1.138c0.607-1.004 1.61-2.717 3.01-5.141 1.399-2.424 2.751-4.714 4.056-6.87 1.305-2.149 2.536-4.093 3.696-5.831v0l-2.958-0.096c-0.251-0.008-0.374-0.075-0.37-0.201 0.004-0.125 0.11-0.244 0.319-0.356 0.202-0.119 0.415-0.175 0.639-0.167v0c0.547 0.018 1.507 0.036 2.88 0.054v0c1.283-1.879 2.377-3.366 3.285-4.458v0c0.803-0.951 1.357-1.422 1.66-1.412v0c0.171 0.006 0.254 0.12 0.246 0.345v0c-0.017 0.528-0.525 1.637-1.524 3.327v0l-1.352 2.273 3.848 0.126c0.224 0.007 0.334 0.074 0.331 0.199v0c-0.013 0.396-0.379 0.582-1.098 0.558v0l-3.512-0.114c-6.113 10.728-9.33 16.35-9.65 16.868v0c-1.105 1.885-1.666 3.115-1.685 3.689v0c-0.006 0.171 0.051 0.259 0.17 0.263v0c0.35 0.011 1.388-0.754 3.115-2.296z" fill="#233565" data-fill-palette-color="accent"></path><path d="M142.61 228.795v0c0.229 0.016 0.349 0.073 0.363 0.171v0c0.02 0.15-0.054 0.337-0.224 0.56v0c-0.231 0.311-0.584 0.725-1.061 1.242-0.47 0.516-0.747 0.83-0.831 0.941v0l-0.425 0.777c-0.319 1.528-0.912 3.15-1.779 4.865-0.86 1.714-1.982 3.268-3.365 4.66-1.382 1.399-2.78 2.194-4.192 2.385v0c-1.753 0.237-2.774-0.72-3.065-2.872v0c-0.257-1.903 0.082-4.043 1.019-6.42 0.936-2.384 2.279-4.493 4.029-6.328 1.756-1.836 3.586-2.882 5.488-3.139v0c1.38-0.187 2.144 0.266 2.291 1.358v0c0.08 0.589-0.106 1.429-0.558 2.522v0c-0.023 0.03-0.03 0.071-0.023 0.123 0.006 0.046 0.032 0.066 0.078 0.06v0c0.866-0.49 1.618-0.791 2.255-0.905zM139.208 230.154v0c0.086-0.891 0.097-1.571 0.033-2.042v0c-0.14-1.033-0.556-1.503-1.249-1.409v0c-0.968 0.131-2.047 1.183-3.239 3.155-1.192 1.972-2.15 4.14-2.876 6.502-0.726 2.362-1.002 4.187-0.828 5.475v0c0.126 0.935 0.523 1.358 1.19 1.268v0c1.04-0.141 2.142-1.345 3.307-3.614 1.164-2.275 1.754-4.482 1.772-6.622v0c-0.032-0.042-0.056-0.116-0.07-0.22v0c-0.096-0.713 0.458-1.44 1.662-2.183v0c0.193-0.099 0.292-0.203 0.298-0.31z" fill="#233565" data-fill-palette-color="accent"></path><path d="M161.095 228.403v0c-0.19 0.075-0.313 0.042-0.369-0.099v0c-0.027-0.068-0.026-0.174 0.001-0.32v0c0.525-2.676 0.632-4.407 0.323-5.193v0c-0.082-0.209-0.206-0.28-0.373-0.214v0c-0.694 0.274-1.706 2.497-3.038 6.67v0c-0.378 1.27-0.692 2.558-0.943 3.863-0.251 1.305-0.392 2.287-0.422 2.944v0l-0.107 0.968c-0.056 0.668-0.282 1.353-0.678 2.056-0.388 0.707-0.895 1.183-1.521 1.431v0c-0.325 0.128-0.521 0.11-0.586-0.056v0c-0.053-0.135-0.069-0.462-0.048-0.982 0.022-0.519 0.069-1.102 0.14-1.747 0.065-0.643 0.135-1.274 0.211-1.892 0.081-0.621 0.145-1.143 0.19-1.566v0l0.106-0.648 1.142-7.805c0.357-3.227 1.312-5.148 2.865-5.761v0c0.209-0.082 0.346-0.041 0.411 0.125v0c0.082 0.209-0.08 1.27-0.488 3.183-0.405 1.92-0.608 3.121-0.609 3.604v0c0.013 0.158 0.023 0.246 0.03 0.265v0c0.019 0.049 0.051 0.065 0.094 0.048 0.049-0.019 0.109-0.11 0.179-0.273v0c0.959-2.656 2.111-5.137 3.457-7.442v0c0.064-0.16 0.254-0.427 0.568-0.799 0.306-0.376 0.609-0.624 0.909-0.742v0c0.442-0.175 0.813 0.119 1.114 0.879v0c0.33 0.835 0.444 1.942 0.344 3.323-0.1 1.381-0.449 2.699-1.045 3.957v0l-0.093 0.196c-0.065 0.104-0.133 0.219-0.204 0.347-0.073 0.121-0.166 0.271-0.279 0.451-0.12 0.182-0.243 0.344-0.372 0.487-0.134 0.145-0.28 0.288-0.437 0.428-0.155 0.146-0.312 0.251-0.472 0.314z" fill="#233565" data-fill-palette-color="accent"></path><path d="M179.843 212.864v0c-0.089-0.691-0.262-1.232-0.519-1.624v0c-0.22-0.337-0.435-0.437-0.645-0.299v0c-0.127 0.083-0.244 0.211-0.352 0.384-0.11 0.182-0.179 0.342-0.207 0.478v0l-0.076 0.227c-0.278 0.986-0.412 2.54-0.403 4.664 0.003 2.127 0.142 3.4 0.417 3.82v0c0.054 0.083 0.101 0.112 0.139 0.086v0c0.127-0.083 0.337-0.37 0.631-0.862 0.288-0.488 0.584-1.379 0.888-2.675 0.295-1.297 0.337-2.697 0.127-4.199zM183.122 220.95v0c0.436-1.744 0.918-4.472 1.446-8.185v0c0.021-0.1 0.054-0.165 0.098-0.194 0.039-0.025 0.085 0.003 0.139 0.087v0c0.26 0.398 0.356 0.887 0.287 1.468v0c-0.421 2.72-0.854 5.041-1.299 6.965v0c-0.298 1.449-0.791 2.974-1.478 4.574-0.686 1.592-1.423 2.646-2.213 3.163v0c-0.961 0.629-1.878 0.275-2.753-1.062v0c-1.445-2.209-2.143-5.06-2.094-8.553 0.058-3.492 0.881-6.368 2.469-8.629v0c0.654-0.964 1.346-1.685 2.075-2.162v0c0.812-0.531 1.429-0.473 1.852 0.173v0c0.791 1.209 0.846 3.156 0.166 5.84-0.69 2.683-1.833 5.13-3.43 7.342v0c-0.072 0.071-0.097 0.19-0.074 0.356v0c0.245 1.062 0.586 1.927 1.023 2.595v0c0.491 0.751 1.019 0.942 1.582 0.574v0c0.9-0.589 1.635-2.039 2.204-4.352z" fill="#233565" data-fill-palette-color="accent"></path><path d="M205.388 165.738v0c1.649 3.787 3.637 7.579 5.962 11.375 2.335 3.794 4.254 6.643 5.758 8.547v0l2.255 2.856c0.545 0.768 0.745 1.281 0.6 1.54v0c-0.074 0.132-0.217 0.204-0.427 0.215-0.205 0.014-0.396-0.003-0.574-0.05v0l-0.263-0.057c-1.919-0.707-3.848-1.605-5.786-2.694v0c-1.542-0.866-3.724-2.236-6.548-4.109-2.823-1.873-4.908-3.188-6.254-3.944v0c-0.219-0.123-0.352-0.141-0.4-0.054v0c-0.026 0.046-0.028 0.124-0.007 0.234 0.027 0.114 0.059 0.211 0.097 0.293v0l0.056 0.122c0.745 1.531 1.933 3.477 3.565 5.84 1.632 2.362 3.089 4.316 4.371 5.861v0c0.969 1.172 1.81 2.296 2.524 3.37 0.713 1.074 1.242 1.965 1.586 2.673 0.344 0.708 0.614 1.332 0.81 1.874 0.199 0.535 0.314 0.93 0.346 1.182v0l0.053 0.37c0.05 0.369 0.045 0.608-0.017 0.718v0c-0.074 0.132-0.221 0.137-0.439 0.014v0c-2.042-1.147-6.451-7.756-13.227-19.826v0c-0.557-1.002-1.076-1.918-1.556-2.747-0.478-0.821-0.814-1.388-1.009-1.702v0l-0.331-0.481c-2.029-2.343-2.91-3.753-2.641-4.231v0c0.184-0.328 0.817-0.188 1.898 0.419v0c5.325 2.794 9.772 5.193 13.339 7.197v0c1.542 0.866 2.593 1.468 3.153 1.805v0c0.368 0.154 0.595 0.153 0.682-0.003v0c0.097-0.173-0.032-0.529-0.387-1.069v0c-3.127-4.822-5.174-7.901-6.141-9.239v0c-4.585-6.443-6.177-10.913-4.774-13.41v0c0.171-0.305 0.343-0.409 0.516-0.312v0c0.132 0.074 0.246 0.282 0.342 0.624v0c0.333 0.929 1.289 3.195 2.868 6.799z" fill="#233565" data-fill-palette-color="accent"></path><path d="M220.85 153.03v0c0.053-0.191 0.293-0.326 0.719-0.407 0.418-0.076 0.796-0.067 1.133 0.027v0c0.292 0.081 0.57 0.203 0.833 0.364 0.263 0.162 0.457 0.301 0.583 0.419v0l0.208 0.211c1.957 1.81 3.576 4.142 4.859 6.998 1.278 2.847 1.594 5.438 0.947 7.771v0c-0.34 1.227-1.029 2.005-2.065 2.334-1.038 0.335-2.241 0.313-3.607-0.066v0c-2.404-0.667-4.67-2.038-6.799-4.114-2.127-2.083-3.931-4.466-5.413-7.151v0c-0.348 0.883-0.93 1.639-1.748 2.268-0.825 0.627-1.669 0.821-2.534 0.581v0c-1.323-0.367-2.333-1.811-3.031-4.333-0.698-2.522-0.603-5.382 0.285-8.58v0c0.28-1.011 0.762-2.254 1.445-3.729 0.678-1.483 1.134-2.644 1.366-3.483v0c0.374-1.348 0.425-2.371 0.153-3.07v0c0.007-0.101 0.021-0.186 0.041-0.256v0c0.034-0.121 0.098-0.168 0.193-0.141 0.095 0.026 0.212 0.11 0.351 0.251v0c0.635 0.697 1.082 1.519 1.34 2.467 0.249 0.953 0.238 1.918-0.034 2.898v0c-0.295 1.062-1.003 2.543-2.126 4.443-1.117 1.902-1.832 3.419-2.145 4.552v0c-0.353 1.272-0.329 2.583 0.069 3.932 0.398 1.357 1.223 2.209 2.476 2.556v0c0.528 0.146 1.083 0.143 1.667-0.01 0.588-0.145 1.039-0.328 1.354-0.549v0l0.484-0.338 0.095-0.045c-1.891-3.551-2.777-6.516-2.659-8.894v0c0.008-0.128 0.035-0.274 0.081-0.44v0c0.067-0.242 0.174-0.342 0.319-0.301v0c0.191 0.053 0.309 0.281 0.355 0.684v0c0.076 0.74 0.493 1.89 1.252 3.449 0.761 1.553 1.758 3.254 2.991 5.103 1.235 1.842 2.834 3.583 4.797 5.223 1.967 1.648 3.997 2.762 6.088 3.343v0c2.137 0.593 3.408 0.158 3.814-1.305v0c0.295-1.062 0.24-2.197-0.165-3.405-0.396-1.212-1.039-2.363-1.929-3.452-0.889-1.089-1.821-2.077-2.794-2.963-0.965-0.891-1.973-1.687-3.025-2.39v0c-0.195-0.136-0.27-0.287-0.224-0.452z" fill="#233565" data-fill-palette-color="accent"></path><path d="M2.083 127.244c0-6.645 5.387-12.031 12.031-12.031 6.645 0 12.031 5.387 12.032 12.031 0 6.645-5.387 12.031-12.032 12.032-6.645 0-12.031-5.387-12.031-12.032z" fill="#233565" data-fill-palette-color="accent"></path><path d="M215.489 127.244c0-6.645 5.387-12.031 12.031-12.031 6.645 0 12.031 5.387 12.032 12.031 0 6.645-5.387 12.031-12.032 12.032-6.645 0-12.031-5.387-12.031-12.032z" fill="#233565" data-fill-palette-color="accent"></path></g><g id="text-1"></g></svg></g></svg></g><g></g></svg></g><defs></defs></svg><rect width="242.69094581102829" height="247.2" fill="none" stroke="none" visibility="hidden"></rect></g></svg></g></svg>