<svg xmlns="http://www.w3.org/2000/svg" version="1.1" xmlns:xlink="http://www.w3.org/1999/xlink" xmlns:svgjs="http://svgjs.dev/svgjs" width="2000" height="1500" viewBox="0 0 2000 1500"><rect width="2000" height="1500" fill="#ffffff"></rect><g transform="matrix(0.75,0,0,0.75,249.090909090909,563.4045906462585)"><svg viewBox="0 0 396 98" data-background-color="#ffffff" preserveAspectRatio="xMidYMid meet" height="494" width="2000" xmlns="http://www.w3.org/2000/svg" xmlns:xlink="http://www.w3.org/1999/xlink"><g id="tight-bounds" transform="matrix(1,0,0,1,0.2400000000000091,0.35587076023392683)"><svg viewBox="0 0 395.52 97.28825847953215" height="97.28825847953215" width="395.52"><g><svg viewBox="0 0 395.52 97.28825847953215" height="97.28825847953215" width="395.52"><g><svg viewBox="0 0 395.52 97.28825847953215" height="97.28825847953215" width="395.52"><g id="textblocktransform"><svg viewBox="0 0 395.52 97.28825847953215" height="97.28825847953215" width="395.52" id="textblock"><g><svg viewBox="0 0 395.52 97.28825847953215" height="97.28825847953215" width="395.52"><rect width="395.52" height="97.28825847953215" x="0" y="0" opacity="1" fill="#233565" data-fill-palette-color="tertiary"></rect><g transform="matrix(1,0,0,1,23.607599999999998,23.607599999999994)"><svg width="348.3048" viewBox="1.65 -36.85 307.77000000000004 44.25" height="50.07305847953216" data-palette-color="#ffffff"><path d="M10.15 0L5.25 0 5.25-35.85 27.35-35.85 27.35-31.9 10.15-31.9 10.15-19.35 24.85-19.35 24.85-15.4 10.15-15.4 10.15 0ZM24-28.15L23.25-33.15 27.35-31.9 27.35-27.35 25.05-27.35Q24.65-27.35 24.38-27.53 24.1-27.7 24-28.15L24-28.15ZM1.65-35.85L6.75-35.85 6.2-31.95 2.45-32.75Q2.05-32.85 1.85-33.1 1.65-33.35 1.65-33.8L1.65-33.8 1.65-35.85ZM6.75 0L1.65 0 1.65-2.05Q1.65-2.5 1.85-2.78 2.05-3.05 2.45-3.1L2.45-3.1 6.2-3.9 6.75 0ZM13.75 0L8.65 0 9.2-3.9 12.95-3.1Q13.35-3.05 13.55-2.78 13.75-2.5 13.75-2.05L13.75-2.05 13.75 0ZM41.9-25.75L41.9-25.75Q45.7-25.75 48.37-24.13 51.05-22.5 52.5-19.55 53.95-16.6 53.95-12.7L53.95-12.7Q53.95-8.8 52.5-5.85 51.05-2.9 48.37-1.28 45.7 0.35 41.9 0.35L41.9 0.35Q38.2 0.35 35.47-1.28 32.75-2.9 31.27-5.85 29.8-8.8 29.8-12.7L29.8-12.7Q29.8-16.6 31.27-19.55 32.75-22.5 35.47-24.13 38.2-25.75 41.9-25.75ZM41.9-3.15L41.9-3.15Q45.65-3.15 47.5-5.65 49.35-8.15 49.35-12.65L49.35-12.65Q49.35-15.7 48.52-17.82 47.7-19.95 46.05-21.1 44.4-22.25 41.9-22.25L41.9-22.25Q39.35-22.25 37.67-21.08 36-19.9 35.2-17.75 34.4-15.6 34.4-12.65L34.4-12.65Q34.4-8.3 36.25-5.73 38.1-3.15 41.9-3.15ZM69.45-25.75L69.45-25.75Q73.25-25.75 75.92-24.13 78.59-22.5 80.05-19.55 81.5-16.6 81.5-12.7L81.5-12.7Q81.5-8.8 80.05-5.85 78.59-2.9 75.92-1.28 73.25 0.35 69.45 0.35L69.45 0.35Q65.75 0.35 63.02-1.28 60.3-2.9 58.82-5.85 57.35-8.8 57.35-12.7L57.35-12.7Q57.35-16.6 58.82-19.55 60.3-22.5 63.02-24.13 65.75-25.75 69.45-25.75ZM69.45-3.15L69.45-3.15Q73.2-3.15 75.05-5.65 76.9-8.15 76.9-12.65L76.9-12.65Q76.9-15.7 76.07-17.82 75.25-19.95 73.59-21.1 71.95-22.25 69.45-22.25L69.45-22.25Q66.9-22.25 65.22-21.08 63.55-19.9 62.75-17.75 61.95-15.6 61.95-12.65L61.95-12.65Q61.95-8.3 63.8-5.73 65.65-3.15 69.45-3.15ZM94.49 0.35L94.49 0.35Q91.39 0.35 89.24-1.25 87.09-2.85 85.99-5.78 84.89-8.7 84.89-12.6L84.89-12.6Q84.89-16.3 86.19-19.28 87.49-22.25 89.97-24.03 92.44-25.8 95.84-25.8L95.84-25.8Q98.19-25.8 99.84-25 101.49-24.2 102.79-22.8L102.79-22.8 102.79-36.85 107.24-36.85 107.24 0 104.59 0Q103.59 0 103.39-0.95L103.39-0.95 102.99-4Q101.34-2.05 99.27-0.85 97.19 0.35 94.49 0.35ZM95.94-3.25L95.94-3.25Q98.14-3.25 99.77-4.25 101.39-5.25 102.79-7.1L102.79-7.1 102.79-19.35Q101.54-21 100.09-21.65 98.64-22.3 96.84-22.3L96.84-22.3Q94.49-22.3 92.84-21.18 91.19-20.05 90.34-17.88 89.49-15.7 89.49-12.6L89.49-12.6Q89.49-8.05 91.04-5.65 92.59-3.25 95.94-3.25ZM99.19-36.85L104.29-36.85 103.74-32.95 99.99-33.75Q99.59-33.85 99.39-34.1 99.19-34.35 99.19-34.8L99.19-34.8 99.19-36.85ZM110.84 0L105.74 0 106.29-3.9 110.04-3.1Q110.44-3.05 110.64-2.78 110.84-2.5 110.84-2.05L110.84-2.05 110.84 0ZM124.49 0.4L124.49 0.4Q122.59 0.4 120.62 0.08 118.64-0.25 116.97-0.7 115.29-1.15 114.29-1.5L114.29-1.5 114.29-5.95 118.14-5Q120.19-4.25 121.62-3.95 123.04-3.65 124.89-3.65L124.89-3.65Q127.14-3.65 128.77-4.45 130.39-5.25 131.29-6.7 132.19-8.15 132.19-10L132.19-10Q132.19-11.75 131.44-12.85 130.69-13.95 129.44-14.63 128.19-15.3 126.67-15.78 125.14-16.25 123.54-16.8L123.54-16.8Q121.49-17.5 119.52-18.55 117.54-19.6 116.29-21.38 115.04-23.15 115.04-26.1L115.04-26.1Q115.04-29.05 116.42-31.35 117.79-33.65 120.29-34.95 122.79-36.25 126.19-36.25L126.19-36.25Q128.34-36.25 130.97-35.73 133.59-35.2 135.94-34.2L135.94-34.2 135.94-30.5 132.14-31.25Q130.54-31.7 128.97-31.95 127.39-32.2 126.19-32.2L126.19-32.2Q123.14-32.2 121.34-30.68 119.54-29.15 119.54-26.75L119.54-26.75Q119.54-24.65 120.82-23.5 122.09-22.35 124.07-21.65 126.04-20.95 128.14-20.2L128.14-20.2Q130.49-19.4 132.44-18.3 134.39-17.2 135.56-15.43 136.74-13.65 136.74-10.7L136.74-10.7Q136.74-7.55 135.27-5.03 133.79-2.5 131.06-1.05 128.34 0.4 124.49 0.4ZM132.59-26.75L131.84-31.75 135.94-30.5 135.94-25.95 133.64-25.95Q133.24-25.95 132.97-26.13 132.69-26.3 132.59-26.75L132.59-26.75ZM117.64-9.7L118.39-4.7 114.29-5.95 114.29-10.5 116.59-10.5Q116.99-10.5 117.29-10.33 117.59-10.15 117.64-9.7L117.64-9.7ZM149.89 0.4L149.89 0.4Q146.89 0.4 145.26-1.28 143.64-2.95 143.64-6.1L143.64-6.1 143.64-21.6 140.59-21.6Q140.19-21.6 139.91-21.85 139.64-22.1 139.64-22.6L139.64-22.6 139.64-24.35 143.79-24.9 144.84-32.7Q144.94-33.55 145.84-33.55L145.84-33.55 148.09-33.55 148.09-24.85 155.34-24.85 155.34-21.6 148.09-21.6 148.09-6.4Q148.09-4.8 148.86-4.03 149.64-3.25 150.89-3.25L150.89-3.25Q151.44-3.25 152.09-3.55 152.74-3.85 153.29-4.15 153.84-4.45 154.09-4.45L154.09-4.45Q154.44-4.45 154.69-4.05L154.69-4.05 155.99-1.9Q154.84-0.85 153.21-0.23 151.59 0.4 149.89 0.4ZM170.94-25.75L170.94-25.75Q174.74-25.75 177.41-24.13 180.09-22.5 181.54-19.55 182.99-16.6 182.99-12.7L182.99-12.7Q182.99-8.8 181.54-5.85 180.09-2.9 177.41-1.28 174.74 0.35 170.94 0.35L170.94 0.35Q167.24 0.35 164.51-1.28 161.79-2.9 160.31-5.85 158.84-8.8 158.84-12.7L158.84-12.7Q158.84-16.6 160.31-19.55 161.79-22.5 164.51-24.13 167.24-25.75 170.94-25.75ZM170.94-3.15L170.94-3.15Q174.69-3.15 176.54-5.65 178.39-8.15 178.39-12.65L178.39-12.65Q178.39-15.7 177.56-17.82 176.74-19.95 175.09-21.1 173.44-22.25 170.94-22.25L170.94-22.25Q168.39-22.25 166.71-21.08 165.04-19.9 164.24-17.75 163.44-15.6 163.44-12.65L163.44-12.65Q163.44-8.3 165.29-5.73 167.14-3.15 170.94-3.15ZM194.13 0L189.68 0 189.68-25.35 192.23-25.35Q192.98-25.35 193.28-25.08 193.58-24.8 193.63-24.1L193.63-24.1 193.93-20.15Q195.23-22.8 197.13-24.3 199.03-25.8 201.63-25.8L201.63-25.8Q202.68-25.8 203.53-25.55 204.38-25.3 205.08-24.9L205.08-24.9 204.53-21.55Q204.48-21.25 204.26-21.1 204.03-20.95 203.73-20.95L203.73-20.95Q203.38-20.95 202.38-21.18 201.38-21.4 200.63-21.4L200.63-21.4Q198.33-21.4 196.76-20.05 195.18-18.7 194.13-16.15L194.13-16.15 194.13 0ZM197.73 0L192.63 0 193.18-3.9 196.93-3.1Q197.33-3.05 197.53-2.78 197.73-2.5 197.73-2.05L197.73-2.05 197.73 0ZM191.18 0L186.08 0 186.08-2.05Q186.08-2.5 186.28-2.78 186.48-3.05 186.88-3.1L186.88-3.1 190.63-3.9 191.18 0ZM186.08-25.35L191.18-25.35 190.63-21.45 186.88-22.25Q186.48-22.35 186.28-22.6 186.08-22.85 186.08-23.3L186.08-23.3 186.08-25.35ZM219.58 0.35L219.58 0.35Q215.93 0.35 213.21-1.3 210.48-2.95 208.98-6 207.48-9.05 207.48-13.2L207.48-13.2Q207.48-16.75 208.93-19.6 210.38-22.45 213.06-24.1 215.73-25.75 219.33-25.75L219.33-25.75Q222.48-25.75 224.83-24.35 227.18-22.95 228.51-20.43 229.83-17.9 229.83-14.4L229.83-14.4Q229.83-13.35 229.61-13 229.38-12.65 228.73-12.65L228.73-12.65 211.88-12.65Q211.88-12.5 211.88-12.33 211.88-12.15 211.88-12L211.88-12Q212.13-7.8 214.23-5.48 216.33-3.15 219.93-3.15L219.93-3.15Q221.48-3.15 223.01-3.78 224.53-4.4 225.71-5 226.88-5.6 227.38-5.6L227.38-5.6Q227.93-5.6 228.23-5.2L228.23-5.2 229.48-3.55Q228.48-2.25 226.81-1.38 225.13-0.5 223.23-0.08 221.33 0.35 219.58 0.35ZM212.03-15.45L212.03-15.45 225.83-15.45Q225.83-18.55 224.13-20.5 222.43-22.45 219.43-22.45L219.43-22.45Q216.18-22.45 214.33-20.6 212.48-18.75 212.03-15.45ZM283.03 7.4L279.03 7.4Q278.13 7.4 277.43 7.15 276.73 6.9 276.18 6.3L276.18 6.3 269.88-0.6Q268.43-0.15 266.9 0.13 265.38 0.4 263.68 0.4L263.68 0.4Q259.73 0.4 256.5-0.95 253.28-2.3 250.93-4.75L250.93-4.75Q248.63-7.15 247.33-10.53 246.03-13.9 246.03-17.9L246.03-17.9Q246.03-21.95 247.33-25.3 248.63-28.65 250.93-31.1L250.93-31.1Q253.28-33.55 256.5-34.9 259.73-36.25 263.68-36.25L263.68-36.25Q267.63-36.25 270.93-34.9 274.23-33.55 276.53-31.1L276.53-31.1Q278.88-28.65 280.13-25.3 281.38-21.95 281.38-17.9L281.38-17.9Q281.38-13.05 279.38-8.97 277.38-4.9 273.83-2.55L273.83-2.55 283.03 7.4ZM263.68-3.85L263.68-3.85Q267.63-3.85 270.48-5.55 273.33-7.25 274.85-10.43 276.38-13.6 276.38-17.9L276.38-17.9Q276.38-22.2 274.85-25.38 273.33-28.55 270.48-30.3 267.63-32.05 263.68-32.05L263.68-32.05Q259.78-32.05 256.93-30.3 254.08-28.55 252.53-25.38 250.98-22.2 250.98-17.9L250.98-17.9Q250.98-13.6 252.53-10.45 254.08-7.3 256.93-5.58 259.78-3.85 263.68-3.85ZM297.87 0L293.02 0 293.02-31.75 281.37-31.75 281.37-35.85 309.42-35.85 309.42-31.75 297.87-31.75 297.87 0ZM294.52 0L289.42 0 289.42-2.05Q289.42-2.5 289.62-2.78 289.82-3.05 290.22-3.1L290.22-3.1 293.97-3.9 294.52 0ZM301.47 0L296.37 0 296.92-3.9 300.67-3.1Q301.07-3.05 301.27-2.78 301.47-2.5 301.47-2.05L301.47-2.05 301.47 0ZM306.07-28L305.32-33 309.42-31.75 309.42-27.2 307.12-27.2Q306.72-27.2 306.45-27.38 306.17-27.55 306.07-28L306.07-28ZM281.37-31.75L285.47-33 284.72-28Q284.67-27.55 284.37-27.38 284.07-27.2 283.67-27.2L283.67-27.2 281.37-27.2 281.37-31.75Z" opacity="1" transform="matrix(1,0,0,1,0,0)" fill="#ffffff" class="wordmark-text-0" data-fill-palette-color="quaternary" id="text-0"></path></svg></g></svg></g></svg></g></svg></g></svg></g><defs></defs></svg><rect width="395.52" height="97.28825847953215" fill="none" stroke="none" visibility="hidden"></rect></g></svg></g></svg>